<svg version="1.2" baseProfile="tiny-ps" xmlns="http://www.w3.org/2000/svg" viewBox="0 0 1280 720" width="1280" height="720"><title>New Project</title><style>tspan { white-space:pre }.shp0 { fill: #ffff00 } .shp1 { fill: #ffffff } .shp2 { fill: #000000 } </style><path class="shp0" d="M639.5 683C475.54 683 343 550.46 343 386.5C343 222.54 475.54 90 639.5 90C803.46 90 936 222.54 936 386.5C936 550.46 803.46 683 639.5 683Z" /><path class="shp1" d="M505 384C459.65 384 423 347.35 423 302C423 256.65 459.65 220 505 220C550.35 220 587 256.65 587 302C587 347.35 550.35 384 505 384Z" /><path class="shp1" d="M762 383C716.65 383 680 346.35 680 301C680 255.65 716.65 219 762 219C807.35 219 844 255.65 844 301C844 346.35 807.35 383 762 383Z" /><path class="shp2" d="M497.5 373C458.51 373 427 341.49 427 302.5C427 263.51 458.51 232 497.5 232C536.49 232 568 263.51 568 302.5C568 341.49 536.49 373 497.5 373Z" /><path class="shp2" d="M755.5 372C716.51 372 685 340.49 685 301.5C685 262.51 716.51 231 755.5 231C794.49 231 826 262.51 826 301.5C826 340.49 794.49 372 755.5 372Z" /><path class="shp2" d="M666 535C580.84 535 512 532.76 512 530C512 527.24 580.84 525 666 525C751.16 525 820 527.24 820 530C820 532.76 751.16 535 666 535Z" /></svg>